<svg width="37" height="42" viewBox="0 0 37 42" fill="none" xmlns="http://www.w3.org/2000/svg">
<path d="M36.9807 33.9506V18.6339C36.9807 8.35939 28.6903 0 18.4995 0C8.29836 0 0 8.35939 0 18.6339V26.6214C0.00407682 26.6385 0.0183479 26.6504 0.0183479 26.6689V39.3214C0.0183479 40.4569 0.937024 41.3815 2.06523 41.3815C3.17616 41.3815 4.09365 40.4556 4.11178 39.3175L4.14988 37.1913C4.14988 37.1714 4.16812 37.1624 4.17338 37.1452L4.26756 34.5746H4.09742C3.79369 34.5746 3.55552 34.3344 3.55552 34.0285C3.55552 33.7213 3.79369 33.4812 4.09742 33.4812H4.30672L4.46777 29.1077H4.34739C4.07392 29.1077 3.84357 28.8756 3.84357 28.6011C3.84357 28.3097 4.06845 28.0736 4.34739 28.0736H4.50434L4.63663 25.226H4.55799C4.29621 25.226 4.09215 25.0124 4.09215 24.7379C4.09215 24.4636 4.29621 24.2486 4.55799 24.2486H4.67707L4.83285 20.5055C4.68104 20.4211 4.57107 20.2642 4.57107 20.0808C4.57107 19.9212 4.65604 19.788 4.78049 19.7049C4.73736 19.2959 4.78951 18.4967 5.72524 17.9837C5.73318 17.9797 5.73575 17.9691 5.74498 17.9652C5.74627 17.9639 5.93337 17.8901 6.13228 17.7226C6.13099 17.7107 6.12456 17.7001 6.12456 17.6869C6.12456 17.6553 6.13378 17.6276 6.14279 17.5999C6.13378 17.5722 6.12456 17.5445 6.12456 17.5128C6.12456 17.472 6.13626 17.4324 6.15471 17.3981C6.15203 17.3849 6.14419 17.3717 6.14419 17.3586C6.14419 17.3085 6.16898 17.2622 6.2017 17.22V17.1462C6.2017 17.0143 6.3078 16.9089 6.43718 16.9089C6.56807 16.9089 6.67279 17.0144 6.67279 17.1462V17.2253C6.70819 17.2846 6.71087 17.3453 6.71087 17.3584C6.71087 17.373 6.70422 17.3835 6.70293 17.398C6.71999 17.4323 6.7304 17.4719 6.7304 17.5127C6.7304 17.5285 6.7172 17.5378 6.71463 17.555C6.73555 17.5946 6.74992 17.6382 6.74992 17.6869C6.74992 17.6988 6.74487 17.708 6.74348 17.7199C6.89786 17.8359 7.10717 17.9508 7.19493 17.9955C7.20791 18.0021 7.2106 18.0166 7.22111 18.0258C7.6215 18.2592 8.19869 18.8317 8.14376 19.6653C8.29557 19.7404 8.39899 19.8934 8.39899 20.0807C8.39899 20.2759 8.293 20.4369 8.14119 20.5159L8.34921 24.2485H8.39374C8.6568 24.2485 8.8778 24.4728 8.8778 24.7378C8.8778 24.995 8.66591 25.2113 8.41208 25.2219L8.5611 28.0735H8.60422C8.88306 28.0735 9.10942 28.3096 9.10942 28.601C9.10942 28.8688 8.88821 29.093 8.62397 29.1035L8.86342 33.4836C9.16307 33.4889 9.39609 33.7249 9.39609 34.0283C9.39609 34.3095 9.19194 34.5257 8.92233 34.5599L9.05965 37.0553C9.06093 37.0646 9.07016 37.0699 9.07016 37.0792C9.07016 37.6622 9.54124 38.1369 10.1197 38.1369C10.6564 38.1369 11.0987 37.6727 11.1511 37.0593L11.2321 36.3538L11.7006 25.3894C11.6993 25.3763 11.6863 25.3684 11.6863 25.3552C11.6863 24.8777 11.9727 24.4701 12.3826 24.2816C11.9741 23.8028 11.1484 22.6329 11.2912 21.128C11.4285 19.6719 12.4363 18.3306 14.2866 17.1382C17.3162 15.1889 17.981 14.284 18.0792 13.2235C17.9169 13.1472 17.8044 13.0086 17.8044 12.8371C17.8044 12.6933 17.8881 12.572 18.0125 12.4915C17.9091 12.4164 17.8423 12.3081 17.8423 12.1815C17.8423 12.0483 17.9196 11.9362 18.0322 11.861C17.9405 11.7925 17.8803 11.6948 17.8803 11.5827C17.8803 11.4508 17.9654 11.3546 18.0739 11.2952L18.0909 10.7926C18.0792 10.782 18.0608 10.7795 18.053 10.7663C18.0044 10.782 17.9495 10.7807 17.8985 10.7624C16.9209 10.3904 16.2889 9.46183 16.2889 8.39615C16.2889 7.04026 17.3476 5.92451 18.6995 5.85985C18.8069 5.86775 18.9036 5.92181 18.935 6.02604C18.9678 6.13028 18.9259 6.2424 18.8355 6.29906C18.3174 6.62225 18.0072 7.17617 18.0072 7.77897C18.0072 8.72204 18.7702 9.49092 19.7085 9.49092C20.0841 9.49092 20.4557 9.36431 20.7541 9.13476C20.8378 9.0688 20.957 9.0688 21.0422 9.13616C21.1271 9.20212 21.1558 9.31814 21.114 9.41707C20.7215 10.3377 19.8172 10.9326 18.8069 10.9326C18.7204 10.9326 18.6433 10.9128 18.5582 10.9062L18.5465 11.3045C18.646 11.3692 18.7167 11.4668 18.7167 11.5828C18.7167 11.6845 18.6721 11.7754 18.6014 11.8426C18.7389 11.9139 18.8318 12.0325 18.8318 12.1816C18.8318 12.3043 18.7715 12.4085 18.6733 12.4823C18.8121 12.5641 18.9076 12.6894 18.9076 12.8371C18.9076 13.0243 18.7715 13.1801 18.574 13.2499C18.6656 14.2958 19.3357 15.198 22.347 17.1381C24.1987 18.3304 25.2063 19.6731 25.3451 21.1279C25.4825 22.58 24.7143 23.725 24.293 24.2352C24.7326 24.3816 25.0559 24.7814 25.094 25.2626C25.094 25.2706 25.1017 25.2759 25.1017 25.2837L25.7156 36.1386C25.7156 36.1412 25.7129 36.1439 25.7129 36.1465C25.7129 36.1478 25.7156 36.1505 25.7156 36.1518C25.7156 36.7242 26.1867 37.1899 26.765 37.1899C27.303 37.1899 27.7453 36.7348 27.7963 36.132L27.8721 35.2999C27.8735 35.2881 27.8852 35.2828 27.8878 35.2722L27.9154 34.6324H27.7819C27.477 34.6324 27.2387 34.3924 27.2387 34.0864C27.2387 33.7791 27.477 33.539 27.7819 33.539H27.9626L28.1497 29.1655H28.0318C27.7583 29.1655 27.5267 28.9333 27.5267 28.6577C27.5267 28.3674 27.753 28.1301 28.0318 28.1301H28.1888L28.3209 25.2838H28.2412C27.9795 25.2838 27.7569 25.0596 27.7569 24.7946C27.7569 24.5295 27.9794 24.3053 28.2412 24.3053H28.3603L28.5159 20.5701C28.3614 20.4924 28.2555 20.342 28.2555 20.1586C28.2555 19.9911 28.3405 19.8526 28.4649 19.7642C28.4217 19.3593 28.474 18.5587 29.4032 18.0456C29.4137 18.039 29.4177 18.0258 29.428 18.0219C29.4305 18.0219 29.6165 17.9466 29.8153 17.7806C29.814 17.7687 29.8075 17.7581 29.8075 17.7449C29.8075 17.7158 29.8181 17.6895 29.8272 17.6618C29.8167 17.6328 29.8075 17.6038 29.8075 17.5708C29.8075 17.5285 29.8192 17.4903 29.8376 17.456C29.835 17.4428 29.8271 17.4296 29.8271 17.4164C29.8271 17.3636 29.8531 17.3175 29.8846 17.2766V17.204C29.8846 17.0721 29.9907 16.9654 30.1201 16.9654C30.2511 16.9654 30.3558 17.0722 30.3558 17.204V17.3215C30.37 17.3531 30.3949 17.3808 30.3949 17.4164C30.3949 17.431 30.3884 17.4428 30.3871 17.456C30.4028 17.4903 30.4133 17.5285 30.4133 17.5708C30.4133 17.5892 30.3976 17.5998 30.3963 17.6169C30.4172 17.6565 30.433 17.6987 30.433 17.7449C30.433 17.7555 30.4277 17.766 30.4264 17.7779C30.582 17.8939 30.7902 18.0099 30.8778 18.0549C30.9053 18.0681 30.9145 18.0971 30.9327 18.1181C31.3307 18.3556 31.8725 18.9068 31.8135 19.7128C31.9745 19.7879 32.0819 19.9515 32.0819 20.1586C32.0819 20.3484 31.9784 20.5014 31.8253 20.5767L32.0321 24.3053H32.0766C32.3396 24.3053 32.5609 24.5295 32.5609 24.7946C32.5609 25.0531 32.3489 25.2694 32.095 25.28L32.2429 28.1301H32.2873C32.5661 28.1301 32.7924 28.3674 32.7924 28.6577C32.7924 28.9267 32.5713 29.151 32.3069 29.1615L32.5465 33.5404C32.8462 33.547 33.0792 33.7817 33.0792 34.0864C33.0792 34.3674 32.8751 34.5838 32.6054 34.618L32.7625 37.4905C32.7639 37.4984 32.7717 37.5024 32.773 37.5104L32.9078 39.9055C32.9798 41.0978 33.8592 42 34.9532 42C36.0814 42 37 41.0661 37 39.9187V33.998C36.9964 33.9811 36.9807 33.9692 36.9807 33.9506ZM20.5921 7.58521L20.2165 7.85163L20.3538 8.28554C20.3867 8.38318 20.3514 8.49 20.2689 8.55066C20.2269 8.58105 20.1785 8.59543 20.1301 8.59543C20.0816 8.59543 20.032 8.58094 19.9914 8.54926L19.6288 8.28413L19.2494 8.55185C19.1656 8.61121 19.0556 8.60991 18.9733 8.54926C18.8921 8.4899 18.8582 8.38177 18.8896 8.28543L19.0282 7.84882L18.6671 7.5824C18.5846 7.52163 18.5506 7.41491 18.582 7.31598C18.6147 7.21964 18.7051 7.15239 18.8072 7.15239H19.2665L19.4066 6.70258C19.4681 6.50342 19.7952 6.50342 19.8567 6.70258L19.9968 7.15239H20.4561C20.5595 7.15239 20.6511 7.21964 20.6812 7.31857C20.7125 7.41762 20.6773 7.52585 20.5921 7.58521Z" fill="white"/>
</svg>
